<?xml version="1.0" standalone="no"?>
<!DOCTYPE svg PUBLIC "-//W3C//DTD SVG 20010904//EN"
 "http://www.w3.org/TR/2001/REC-SVG-20010904/DTD/svg10.dtd">
<svg version="1.0" xmlns="http://www.w3.org/2000/svg"
 width="605.000000pt" height="249.000000pt" viewBox="0 0 605.000000 249.000000"
 preserveAspectRatio="xMidYMid meet">

<g transform="translate(0.000000,249.000000) scale(0.100000,-0.100000)"
fill="#000000" stroke="none">
<path d="M0 1245 l0 -1245 2413 2 c1326 1 2391 3 2364 5 -26 2 -45 8 -42 14 4
5 -6 10 -22 10 l-28 1 30 8 c26 7 22 8 -22 9 -29 0 -53 6 -53 11 0 6 -10 10
-22 10 -19 0 -20 2 -8 10 11 7 6 10 -20 10 -26 0 -31 3 -20 10 11 7 6 10 -20
11 -32 1 -33 2 -10 9 21 7 19 8 -17 9 -24 1 -43 6 -43 11 0 6 -10 10 -22 10
-19 0 -20 2 -8 10 11 7 6 10 -20 10 -26 0 -31 3 -20 10 12 8 8 10 -15 11 l-30
1 30 8 c27 7 25 8 -18 9 -29 1 -46 5 -42 11 3 6 -4 10 -17 11 -23 1 -23 1 2 9
24 8 24 8 -6 9 -18 1 -44 7 -59 15 -23 12 -24 15 -8 19 10 3 4 5 -14 6 -18 0
-33 6 -33 11 0 6 -7 10 -16 10 -8 0 -12 5 -9 10 3 6 -3 10 -14 10 -12 0 -21 5
-21 10 0 6 -8 10 -17 11 -15 0 -15 2 2 9 17 7 15 9 -12 9 -18 1 -33 6 -33 11
0 6 -8 10 -17 11 -15 0 -15 2 2 9 18 8 17 9 -8 9 -33 1 -65 26 -44 34 6 3 -1
6 -16 6 -16 1 -26 5 -22 11 3 6 -4 10 -17 11 -23 1 -23 1 2 9 23 7 22 8 -10 9
-26 1 -31 4 -20 11 10 6 -509 10 -1473 10 -1300 0 -1492 2 -1517 15 -63 33
-60 -2 -60 688 l0 629 34 34 34 34 937 0 c811 0 936 2 932 14 -4 9 1 17 11 19
13 4 12 5 -4 6 -27 1 -39 28 -16 34 11 3 8 5 -8 6 -20 1 -22 3 -10 11 13 9 13
10 0 10 -13 0 -13 1 0 10 13 8 12 10 -3 10 -10 0 -15 5 -12 10 3 6 0 10 -7 10
-9 0 -9 3 2 10 13 8 12 10 -3 10 -10 0 -15 5 -12 10 3 6 0 10 -7 11 -7 1 -2 5
12 9 24 8 24 8 3 9 -21 1 -28 11 -24 34 0 4 -5 7 -11 7 -9 0 -8 4 2 10 13 9
13 10 0 10 -13 0 -13 1 0 10 13 8 12 10 -3 10 -10 0 -16 4 -13 9 4 5 0 12 -6
14 -10 4 -10 6 0 6 10 1 9 6 -4 18 -15 16 -15 17 2 24 16 6 15 8 -6 8 -20 1
-22 3 -10 11 13 9 13 10 0 10 -13 0 -13 1 0 10 13 8 12 10 -3 10 -10 0 -15 5
-12 10 3 6 0 10 -7 11 -7 1 -2 5 12 9 23 7 23 8 4 9 -27 1 -41 31 -16 32 14 0
14 2 -3 9 -11 5 -15 9 -10 9 6 1 3 6 -5 11 -11 7 -12 10 -2 10 10 0 9 5 -4 17
-15 16 -15 17 2 24 18 7 18 8 1 8 -10 1 -15 6 -12 11 4 7 -437 10 -1314 10
l-1321 0 0 -1245z"/>
<path d="M2758 2483 c7 -3 16 -2 19 1 4 3 -2 6 -13 5 -11 0 -14 -3 -6 -6z"/>
<path d="M2778 2423 c7 -3 16 -2 19 1 4 3 -2 6 -13 5 -11 0 -14 -3 -6 -6z"/>
<path d="M2798 2343 c7 -3 16 -2 19 1 4 3 -2 6 -13 5 -11 0 -14 -3 -6 -6z"/>
<path d="M2828 2263 c6 -2 18 -2 25 0 6 3 1 5 -13 5 -14 0 -19 -2 -12 -5z"/>
<path d="M2838 2223 c7 -3 16 -2 19 1 4 3 -2 6 -13 5 -11 0 -14 -3 -6 -6z"/>
<path d="M2848 2183 c6 -2 18 -2 25 0 6 3 1 5 -13 5 -14 0 -19 -2 -12 -5z"/>
<path d="M2878 2103 c7 -3 16 -2 19 1 4 3 -2 6 -13 5 -11 0 -14 -3 -6 -6z"/>
<path d="M2898 2063 c7 -3 16 -2 19 1 4 3 -2 6 -13 5 -11 0 -14 -3 -6 -6z"/>
<path d="M2908 2023 c6 -2 18 -2 25 0 6 3 1 5 -13 5 -14 0 -19 -2 -12 -5z"/>
<path d="M2918 2003 c7 -3 16 -2 19 1 4 3 -2 6 -13 5 -11 0 -14 -3 -6 -6z"/>
<path d="M2948 1943 c6 -2 18 -2 25 0 6 3 1 5 -13 5 -14 0 -19 -2 -12 -5z"/>
<path d="M1344 1493 c-120 -98 -219 -183 -221 -190 -3 -6 25 -36 61 -65 l66
-53 -28 -25 c-15 -14 -47 -41 -71 -60 l-43 -35 186 -153 c102 -84 192 -155
201 -158 13 -5 15 15 15 164 l0 169 -122 99 c-67 55 -123 104 -125 110 -4 12
298 264 316 264 11 0 321 -251 321 -260 0 -3 -56 -52 -125 -109 l-125 -102 0
-170 c0 -93 4 -169 8 -169 12 0 377 301 380 314 1 6 -27 34 -62 61 -36 28 -65
53 -66 56 0 3 29 29 65 57 36 29 65 56 65 61 0 15 -443 371 -461 371 -10 0
-115 -80 -235 -177z m29 -409 c47 -36 47 -37 47 -96 0 -68 10 -70 -103 21
l-67 55 33 27 c17 16 35 28 38 29 3 0 27 -16 52 -36z m500 11 c15 -13 27 -28
26 -32 0 -9 -153 -133 -163 -133 -3 0 -6 23 -6 51 0 48 3 54 48 95 26 24 52
44 57 44 6 -1 22 -12 38 -25z"/>
<path d="M3083 1620 c-168 -35 -249 -232 -163 -400 47 -92 172 -142 292 -119
80 16 138 56 174 121 26 48 29 62 29 143 0 97 -12 129 -72 190 -55 56 -169 84
-260 65z m158 -136 c83 -57 74 -216 -15 -258 -73 -35 -167 -10 -198 54 -22 43
-23 121 -3 161 37 70 145 92 216 43z"/>
<path d="M2280 1360 l0 -260 65 0 65 0 0 153 0 152 102 -152 101 -153 64 0 63
0 0 260 0 260 -60 0 -60 0 0 -157 0 -158 -105 158 -105 157 -65 0 -65 0 0
-260z"/>
<path d="M3507 1578 c9 -24 56 -140 103 -258 l86 -215 65 -3 65 -3 97 243 c53
134 99 251 103 261 6 16 0 18 -61 15 l-68 -3 -65 -188 c-36 -103 -69 -184 -73
-180 -3 5 -35 90 -70 190 l-64 183 -67 0 -68 0 17 -42z"/>
<path d="M4193 1433 c-4 -10 -35 -88 -69 -173 l-62 -155 60 -3 c34 -2 65 1 71
7 8 8 17 341 9 341 -1 0 -6 -8 -9 -17z"/>
<path d="M1535 1414 c-16 -14 -54 -46 -83 -71 l-54 -46 29 -23 c15 -13 33 -23
38 -24 6 0 32 18 59 40 26 22 50 40 53 40 3 0 28 -18 55 -40 28 -22 56 -40 62
-40 20 1 58 40 53 53 -7 18 -155 137 -170 137 -7 0 -25 -12 -42 -26z"/>
<path d="M2514 933 c4 -22 17 -47 31 -58 17 -14 25 -31 25 -53 0 -25 4 -32 20
-32 16 0 20 7 20 31 0 21 9 38 30 56 23 18 30 33 30 59 0 27 -4 34 -20 34 -16
0 -20 -7 -20 -30 0 -41 -32 -58 -60 -30 -11 11 -20 29 -20 40 0 14 -7 20 -21
20 -19 0 -21 -4 -15 -37z"/>
<path d="M2775 945 c-25 -24 -33 -73 -19 -110 9 -22 57 -45 94 -45 76 0 112
105 54 158 -35 31 -97 30 -129 -3z m97 -17 c30 -24 31 -56 4 -83 -38 -38 -86
-15 -86 41 0 47 46 70 82 42z"/>
<path d="M3020 901 c0 -63 2 -71 26 -90 33 -26 75 -27 105 -2 19 16 24 30 27
90 4 67 3 71 -17 71 -19 0 -21 -6 -21 -59 0 -50 -4 -62 -22 -75 -15 -11 -26
-12 -40 -5 -15 8 -18 22 -18 74 0 58 -2 65 -20 65 -18 0 -20 -7 -20 -69z"/>
<path d="M3380 880 l0 -90 63 0 c52 0 67 4 82 21 16 16 17 25 8 49 -6 15 -8
40 -6 54 8 43 -12 56 -83 56 l-64 0 0 -90z m108 38 c3 -15 -4 -18 -32 -18 -34
0 -47 15 -29 34 13 13 58 1 61 -16z m12 -73 c0 -11 -11 -15 -40 -15 -29 0 -40
4 -40 15 0 11 11 15 40 15 29 0 40 -4 40 -15z"/>
<path d="M3620 905 c0 -57 3 -69 25 -90 29 -30 73 -33 106 -6 19 16 24 30 27
90 4 67 3 71 -17 71 -19 0 -21 -6 -21 -57 0 -71 -9 -86 -46 -81 -28 3 -29 4
-32 71 -3 59 -5 67 -22 67 -18 0 -20 -7 -20 -65z"/>
<path d="M3870 880 c0 -83 1 -90 20 -90 19 0 20 7 20 90 0 83 -1 90 -20 90
-19 0 -20 -7 -20 -90z"/>
<path d="M4000 880 l0 -90 65 0 c58 0 65 2 65 20 0 17 -7 20 -45 20 l-45 0 0
70 c0 63 -2 70 -20 70 -19 0 -20 -7 -20 -90z"/>
<path d="M4210 879 l0 -91 57 4 c46 4 61 10 81 33 20 24 23 36 19 69 -8 56
-35 76 -103 76 l-54 0 0 -91z m108 39 c32 -26 2 -88 -44 -88 -22 0 -24 4 -24
48 0 27 3 52 7 55 8 8 42 -1 61 -15z"/>
<path d="M4118 503 c7 -3 16 -2 19 1 4 3 -2 6 -13 5 -11 0 -14 -3 -6 -6z"/>
<path d="M4148 483 c6 -2 18 -2 25 0 6 3 1 5 -13 5 -14 0 -19 -2 -12 -5z"/>
<path d="M4213 443 c9 -2 25 -2 35 0 9 3 1 5 -18 5 -19 0 -27 -2 -17 -5z"/>
<path d="M4238 423 c7 -3 16 -2 19 1 4 3 -2 6 -13 5 -11 0 -14 -3 -6 -6z"/>
<path d="M4268 403 c6 -2 18 -2 25 0 6 3 1 5 -13 5 -14 0 -19 -2 -12 -5z"/>
<path d="M4333 363 c9 -2 25 -2 35 0 9 3 1 5 -18 5 -19 0 -27 -2 -17 -5z"/>
<path d="M4398 323 c7 -3 16 -2 19 1 4 3 -2 6 -13 5 -11 0 -14 -3 -6 -6z"/>
<path d="M4428 303 c6 -2 18 -2 25 0 6 3 1 5 -13 5 -14 0 -19 -2 -12 -5z"/>
<path d="M4468 283 c6 -2 18 -2 25 0 6 3 1 5 -13 5 -14 0 -19 -2 -12 -5z"/>
<path d="M4508 263 c6 -2 18 -2 25 0 6 3 1 5 -13 5 -14 0 -19 -2 -12 -5z"/>
<path d="M4543 243 c9 -2 23 -2 30 0 6 3 -1 5 -18 5 -16 0 -22 -2 -12 -5z"/>
<path d="M4623 203 c9 -2 23 -2 30 0 6 3 -1 5 -18 5 -16 0 -22 -2 -12 -5z"/>
<path d="M4668 183 c6 -2 18 -2 25 0 6 3 1 5 -13 5 -14 0 -19 -2 -12 -5z"/>
<path d="M4708 163 c6 -2 18 -2 25 0 6 3 1 5 -13 5 -14 0 -19 -2 -12 -5z"/>
<path d="M4748 143 c6 -2 18 -2 25 0 6 3 1 5 -13 5 -14 0 -19 -2 -12 -5z"/>
<path d="M4808 123 c12 -2 30 -2 40 0 9 3 -1 5 -23 4 -22 0 -30 -2 -17 -4z"/>
<path d="M4903 83 c9 -2 23 -2 30 0 6 3 -1 5 -18 5 -16 0 -22 -2 -12 -5z"/>
<path d="M4948 63 c6 -2 18 -2 25 0 6 3 1 5 -13 5 -14 0 -19 -2 -12 -5z"/>
<path d="M5013 43 c9 -2 25 -2 35 0 9 3 1 5 -18 5 -19 0 -27 -2 -17 -5z"/>
<path d="M5078 43 c7 -3 16 -2 19 1 4 3 -2 6 -13 5 -11 0 -14 -3 -6 -6z"/>
<path d="M5068 23 c6 -2 18 -2 25 0 6 3 1 5 -13 5 -14 0 -19 -2 -12 -5z"/>
<path d="M5133 3 c9 -2 25 -2 35 0 9 3 1 5 -18 5 -19 0 -27 -2 -17 -5z"/>
</g>
</svg>
